<?xml version="1.0" encoding="utf-8"?>
<svg version="1.1" xmlns:xlink="http://www.w3.org/1999/xlink" width="40px" height="36px" xmlns="http://www.w3.org/2000/svg">
  <g transform="matrix(1 0 0 1 -910 -38 )">
    <path d="M 24.53125 22.078125  C 26.6386217948718 20.1814903846154  27.6923076923077 17.8990384615385  27.6923076923077 15.2307692307692  C 27.6923076923077 12.5625  26.6386217948718 10.2800480769231  24.53125 8.38341346153846  C 22.4238782051282 6.48677884615384  19.8878205128205 5.53846153846154  16.9230769230769 5.53846153846154  C 13.9583333333333 5.53846153846154  11.4222756410256 6.48677884615384  9.31490384615385 8.38341346153846  C 7.20753205128205 10.2800480769231  6.15384615384615 12.5625  6.15384615384615 15.2307692307692  C 6.15384615384615 17.8990384615385  7.20753205128205 20.1814903846154  9.31490384615385 22.078125  C 11.4222756410256 23.9747596153846  13.9583333333333 24.9230769230769  16.9230769230769 24.9230769230769  C 19.8878205128205 24.9230769230769  22.4238782051282 23.9747596153846  24.53125 22.078125  Z M 39.1105769230769 31.2836538461538  C 39.7035256410256 31.8173076923077  40 32.4663461538462  40 33.2307692307692  C 40 33.9807692307692  39.6955128205128 34.6298076923077  39.0865384615385 35.1778846153846  C 38.4775641025641 35.7259615384615  37.7564102564103 36  36.9230769230769 36  C 36.0576923076923 36  35.3365384615385 35.7259615384615  34.7596153846154 35.1778846153846  L 26.5144230769231 27.7788461538462  C 23.6458333333333 29.5673076923077  20.448717948718 30.4615384615385  16.9230769230769 30.4615384615385  C 14.6314102564103 30.4615384615385  12.4399038461538 30.0612980769231  10.3485576923077 29.2608173076923  C 8.25721153846154 28.4603365384615  6.45432692307692 27.3786057692308  4.93990384615385 26.015625  C 3.42548076923077 24.6526442307692  2.22355769230769 23.0300480769231  1.33413461538462 21.1478365384615  C 0.444711538461538 19.265625  0 17.2932692307692  0 15.2307692307692  C 0 13.1682692307692  0.444711538461538 11.1959134615385  1.33413461538462 9.31370192307692  C 2.22355769230769 7.43149038461538  3.42548076923077 5.80889423076923  4.93990384615385 4.44591346153846  C 6.45432692307692 3.08293269230769  8.25721153846154 2.00120192307692  10.3485576923077 1.20072115384616  C 12.4399038461538 0.400240384615384  14.6314102564103 0  16.9230769230769 0  C 19.2147435897436 0  21.40625 0.400240384615384  23.4975961538462 1.20072115384616  C 25.5889423076923 2.00120192307692  27.3918269230769 3.08293269230769  28.90625 4.44591346153846  C 30.4206730769231 5.80889423076923  31.6225961538462 7.43149038461538  32.5120192307692 9.31370192307692  C 33.4014423076923 11.1959134615385  33.8461538461538 13.1682692307692  33.8461538461538 15.2307692307692  C 33.8461538461538 18.4038461538462  32.8525641025641 21.28125  30.8653846153846 23.8629807692308  L 39.1105769230769 31.2836538461538  Z " fill-rule="nonzero" fill="#000000" stroke="none" transform="matrix(1 0 0 1 910 38 )" />
  </g>
</svg>