<?xml version="1.0" encoding="utf-8"?>
<svg version="1.1" xmlns:xlink="http://www.w3.org/1999/xlink" width="183px" height="64px" xmlns="http://www.w3.org/2000/svg">
  <defs>
    <mask fill="white" id="clip1">
      <path d="M 0 56  L 0 8  C 0 3.52000000000007  3.29999999999998 0  7.5 0  L 83.6949152542373 0  L 175.5 0  C 179.7 0  183 3.52000000000007  183 8  L 183 56  C 183 60.4799999999999  179.7 64  175.5 64  L 147.254237288136 64  L 7.5 64  C 3.29999999999998 64  0 60.4799999999999  0 56  Z " fill-rule="evenodd" />
    </mask>
  </defs>
  <g transform="matrix(1 0 0 1 -78 -384 )">
    <path d="M 0 56  L 0 8  C 0 3.52000000000007  3.29999999999998 0  7.5 0  L 83.6949152542373 0  L 175.5 0  C 179.7 0  183 3.52000000000007  183 8  L 183 56  C 183 60.4799999999999  179.7 64  175.5 64  L 147.254237288136 64  L 7.5 64  C 3.29999999999998 64  0 60.4799999999999  0 56  Z " fill-rule="nonzero" fill="#d7d7d7" stroke="none" transform="matrix(1 0 0 1 78 384 )" />
    <path d="M 0 56  L 0 8  C 0 3.52000000000007  3.29999999999998 0  7.5 0  L 83.6949152542373 0  L 175.5 0  C 179.7 0  183 3.52000000000007  183 8  L 183 56  C 183 60.4799999999999  179.7 64  175.5 64  L 147.254237288136 64  L 7.5 64  C 3.29999999999998 64  0 60.4799999999999  0 56  Z " stroke-width="4" stroke="#000000" fill="none" transform="matrix(1 0 0 1 78 384 )" mask="url(#clip1)" />
  </g>
</svg>