<?xml version="1.0" encoding="utf-8"?>
<svg version="1.1" xmlns:xlink="http://www.w3.org/1999/xlink" width="222px" height="90px" xmlns="http://www.w3.org/2000/svg">
  <defs>
    <mask fill="white" id="clip3">
      <path d="M 0 78.75  L 0 11.25  C 0 4.9500000000001  4.00327868852457 0  9.0983606557377 0  L 101.531536537927 0  L 212.901639344262 0  C 217.996721311475 0  222 4.9500000000001  222 11.25  L 222 78.75  C 222 85.0499999999999  217.996721311475 90  212.901639344262 90  L 178.636287857738 90  L 9.0983606557377 90  C 4.00327868852457 90  0 85.0499999999999  0 78.75  Z " fill-rule="evenodd" />
    </mask>
  </defs>
  <g transform="matrix(1 0 0 1 -57 -490 )">
    <path d="M 0 78.75  L 0 11.25  C 0 4.9500000000001  4.00327868852457 0  9.0983606557377 0  L 101.531536537927 0  L 212.901639344262 0  C 217.996721311475 0  222 4.9500000000001  222 11.25  L 222 78.75  C 222 85.0499999999999  217.996721311475 90  212.901639344262 90  L 178.636287857738 90  L 9.0983606557377 90  C 4.00327868852457 90  0 85.0499999999999  0 78.75  Z " fill-rule="nonzero" fill="#d7d7d7" stroke="none" transform="matrix(1 0 0 1 57 490 )" />
    <path d="M 0 78.75  L 0 11.25  C 0 4.9500000000001  4.00327868852457 0  9.0983606557377 0  L 101.531536537927 0  L 212.901639344262 0  C 217.996721311475 0  222 4.9500000000001  222 11.25  L 222 78.75  C 222 85.0499999999999  217.996721311475 90  212.901639344262 90  L 178.636287857738 90  L 9.0983606557377 90  C 4.00327868852457 90  0 85.0499999999999  0 78.75  Z " stroke-width="4" stroke="#000000" fill="none" transform="matrix(1 0 0 1 57 490 )" mask="url(#clip3)" />
  </g>
</svg>