<?xml version="1.0" encoding="utf-8"?>
<svg version="1.1" xmlns:xlink="http://www.w3.org/1999/xlink" width="50px" height="32px" xmlns="http://www.w3.org/2000/svg">
  <g transform="matrix(1 0 0 1 -12 -12 )">
    <path d="M 49.3815104166667 26.075  C 49.7938368055556 26.3916666666667  50 26.7666666666667  50 27.2  L 50 30.4  C 50 30.8333333333333  49.7938368055556 31.2083333333333  49.3815104166667 31.525  C 48.9691840277778 31.8416666666667  48.4809027777778 32  47.9166666666667 32  L 2.08333333333333 32  C 1.51909722222222 32  1.03081597222222 31.8416666666667  0.618489583333333 31.525  C 0.206163194444444 31.2083333333333  0 30.8333333333333  0 30.4  L 0 27.2  C 0 26.7666666666667  0.206163194444444 26.3916666666667  0.618489583333333 26.075  C 1.03081597222222 25.7583333333333  1.51909722222222 25.6  2.08333333333333 25  L 47.9166666666667 25  C 48.4809027777778 25.6  48.9691840277778 25.7583333333333  49.3815104166667 26.075  Z M 49.3815104166667 13.275  C 49.7938368055556 13.5916666666667  50 13.9666666666667  50 14.4  L 50 17.6  C 50 18.0333333333333  49.7938368055556 18.4083333333333  49.3815104166667 18.725  C 48.9691840277778 19.0416666666667  48.4809027777778 19.2  47.9166666666667 19  L 2.08333333333333 19  C 1.51909722222222 19.2  1.03081597222222 19.0416666666667  0.618489583333333 18.725  C 0.206163194444444 18.4083333333333  0 18.0333333333333  0 17.6  L 0 14.4  C 0 13.9666666666667  0.206163194444444 13.5916666666667  0.618489583333333 13.275  C 1.03081597222222 12.9583333333333  1.51909722222222 12.8  2.08333333333333 13  L 47.9166666666667 13  C 48.4809027777778 12.8  48.9691840277778 12.9583333333333  49.3815104166667 13.275  Z M 49.3815104166667 0.475000000000001  C 49.7938368055556 0.791666666666664  50 1.16666666666666  50 1.6  L 50 4.8  C 50 5.23333333333333  49.7938368055556 5.60833333333333  49.3815104166667 5.925  C 48.9691840277778 6.24166666666666  48.4809027777778 6.4  47.9166666666667 7  L 2.08333333333333 7  C 1.51909722222222 6.4  1.03081597222222 6.24166666666666  0.618489583333333 5.925  C 0.206163194444444 5.60833333333333  0 5.23333333333333  0 4.8  L 0 1.6  C 0 1.16666666666666  0.206163194444444 0.791666666666664  0.618489583333333 0.475000000000001  C 1.03081597222222 0.158333333333331  1.51909722222222 0  2.08333333333333 0  L 47.9166666666667 0  C 48.4809027777778 0  48.9691840277778 0.158333333333331  49.3815104166667 0.475000000000001  Z " fill-rule="nonzero" fill="#000000" stroke="none" transform="matrix(1 0 0 1 12 12 )" />
  </g>
</svg>