<?xml version="1.0" encoding="utf-8"?>
<svg version="1.1" xmlns:xlink="http://www.w3.org/1999/xlink" width="50px" height="60px" xmlns="http://www.w3.org/2000/svg">
  <g transform="matrix(1 0 0 1 -887 -155 )">
    <path d="M 41.4804469273743 1.80803571428572  C 42.5791433891993 0.602678571428574  43.7895716945996 0  45.1117318435754 0  C 46.415270018622 0  47.5558659217877 0.518973214285716  48.5335195530726 1.55691964285714  C 49.5111731843575 2.59486607142857  50 3.89508928571429  50 5.45758928571428  C 50 6.86383928571428  49.5810055865922 8.54910714285714  48.7430167597765 10.5133928571429  C 42.56052141527 24.5535714285714  38.2309124767225 32.9464285714286  35.7541899441341 35.6919642857143  C 33.9478584729981 37.7232142857143  31.9180633147114 38.7388392857143  29.6648044692737 38.7388392857143  C 27.3184357541899 38.7388392857143  25.3026070763501 37.7064732142857  23.6173184357542 35.6417410714286  C 21.9320297951583 33.5770089285714  21.0893854748603 31.1272321428571  21.0893854748603 28.2924107142857  C 21.0893854748603 25.4352678571429  21.9459962756052 23.0691964285714  23.659217877095 21.1941964285714  L 41.4804469273743 1.80803571428572  Z M 16.2290502793296 34.9720982142857  C 17.1973929236499 34.8046875  18.3612662942272 34.6875  19.7206703910615 34.6205357142857  C 20.4469273743017 36.3169642857143  21.4385474860335 37.7678571428571  22.695530726257 38.9732142857143  C 23.9525139664804 40.1785714285714  25.3538175046555 41.0267857142857  26.8994413407821 41.5178571428571  L 26.927374301676 43.8950892857143  C 27.0018621973929 48.6495535714286  25.7960893854749 52.5223214285714  23.3100558659218 55.5133928571429  C 20.8240223463687 58.5044642857143  17.5791433891993 60  13.5754189944134 60  C 11.2849162011173 60  9.25512104283054 59.4810267857143  7.48603351955307 58.4430803571429  C 5.71694599627561 57.4051339285714  4.29702048417132 55.9821428571429  3.22625698324022 54.1741071428571  C 2.15549348230913 52.3660714285714  1.35009310986965 50.3236607142857  0.810055865921788 48.046875  C 0.270018621973929 45.7700892857143  0 43.3147321428571  0 40.6808035714286  C 0.130353817504656 40.7924107142857  0.512104283054004 41.1272321428571  1.14525139664804 41.6852678571429  C 1.77839851024209 42.2433035714286  2.35567970204842 42.7399553571429  2.87709497206704 43.1752232142857  C 3.39851024208566 43.6104910714286  3.94785847299814 44.0178571428571  4.52513966480447 44.3973214285714  C 5.1024208566108 44.7767857142857  5.53072625698324 44.9665178571429  5.81005586592179 44.9665178571429  C 6.57355679702049 44.9665178571429  7.08566108007449 44.5535714285714  7.3463687150838 43.7276785714286  C 7.81191806331471 42.2544642857143  8.34729981378026 40.9988839285714  8.95251396648045 39.9609375  C 9.55772811918063 38.9229910714286  10.2048417132216 38.0747767857143  10.8938547486034 37.4162946428571  C 11.5828677839851 36.7578125  12.4022346368715 36.2276785714286  13.3519553072626 35.8258928571429  C 14.3016759776536 35.4241071428571  15.2607076350093 35.1395089285714  16.2290502793296 34.9720982142857  Z " fill-rule="nonzero" fill="#000000" stroke="none" transform="matrix(1 0 0 1 887 155 )" />
  </g>
</svg>