<?xml version="1.0" encoding="utf-8"?>
<svg version="1.1" xmlns:xlink="http://www.w3.org/1999/xlink" width="44px" height="44px" xmlns="http://www.w3.org/2000/svg">
  <g transform="matrix(1 0 0 1 -237 -223 )">
    <path d="M 36.5027932960894 1.32589285714286  C 37.4696461824953 0.441964285714288  38.5348230912477 0  39.6983240223464 0  C 40.8454376163873 0  41.8491620111732 0.380580357142859  42.7094972067039 1.14174107142857  C 43.5698324022346 1.90290178571429  44 2.85639880952381  44 4.00223214285714  C 44 5.03348214285714  43.6312849162011 6.26934523809523  42.8938547486034 7.70982142857143  C 37.4532588454376 18.0059523809524  33.6432029795158 24.1607142857143  31.463687150838 26.1741071428571  C 29.8741154562384 27.6636904761905  28.087895716946 28.4084821428571  26.1050279329609 28.4084821428571  C 24.0402234636872 28.4084821428571  22.2662942271881 27.6514136904762  20.7832402234637 26.1372767857143  C 19.3001862197393 24.6231398809524  18.5586592178771 22.8266369047619  18.5586592178771 20.7477678571429  C 18.5586592178771 18.6525297619048  19.3124767225326 16.9174107142857  20.8201117318436 15.5424107142857  L 36.5027932960894 1.32589285714286  Z M 14.2815642458101 25.6462053571429  C 15.1337057728119 25.5234375  16.1579143389199 25.4375  17.3541899441341 25.3883928571429  C 17.9932960893855 26.6324404761905  18.8659217877095 27.6964285714286  19.9720670391061 28.5803571428571  C 21.0782122905028 29.4642857142857  22.3113594040968 30.0863095238095  23.6715083798883 30.4464285714286  L 23.6960893854749 32.1897321428571  C 23.7616387337058 35.6763392857143  22.7005586592179 38.5163690476191  20.5128491620112 40.7098214285714  C 18.3251396648045 42.9032738095238  15.4696461824953 44  11.9463687150838 44  C 9.93072625698324 44  8.14450651769088 43.6194196428571  6.5877094972067 42.8582589285714  C 5.03091247672253 42.0970982142857  3.78137802607076 41.0535714285714  2.8391061452514 39.7276785714286  C 1.89683426443203 38.4017857142857  1.18808193668529 36.9040178571429  0.712849162011173 35.234375  C 0.237616387337058 33.5647321428571  0 31.7641369047619  0 29.8325892857143  C 0.114711359404097 29.9144345238095  0.450651769087523 30.1599702380952  1.00782122905028 30.5691964285714  C 1.56499068901304 30.9784226190476  2.07299813780261 31.3426339285714  2.53184357541899 31.6618303571429  C 2.99068901303538 31.9810267857143  3.47411545623836 32.2797619047619  3.98212290502793 32.5580357142857  C 4.49013035381751 32.8363095238095  4.86703910614525 32.9754464285714  5.11284916201117 32.9754464285714  C 5.78472998137803 32.9754464285714  6.23538175046555 32.6726190476191  6.46480446927374 32.0669642857143  C 6.87448789571695 30.9866071428571  7.34562383612663 30.0658482142857  7.87821229050279 29.3046875  C 8.41080074487896 28.5435267857143  8.98026070763501 27.9215029761905  9.58659217877095 27.4386160714286  C 10.1929236499069 26.9557291666667  10.9139664804469 26.5669642857143  11.7497206703911 26.2723214285714  C 12.5854748603352 25.9776785714286  13.4294227188082 25.7689732142857  14.2815642458101 25.6462053571429  Z " fill-rule="nonzero" fill="#000000" stroke="none" transform="matrix(1 0 0 1 237 223 )" />
  </g>
</svg>