<?xml version="1.0" encoding="utf-8"?>
<svg version="1.1" xmlns:xlink="http://www.w3.org/1999/xlink" width="46px" height="44px" xmlns="http://www.w3.org/2000/svg">
  <g transform="matrix(1 0 0 1 -144 -222 )">
    <path d="M 7.77293729372937 40.2825082508251  L 11.0217821782178 40.2825082508251  L 13.7848184818482 37.639603960396  L 6.64950495049505 30.8145214521452  L 3.88646864686469 33.4574257425743  L 3.88646864686469 36.5650165016502  L 7.77293729372937 36.5650165016502  L 7.77293729372937 40.2825082508251  Z M 26.6891089108911 13.8244224422442  C 26.830803080308 13.6888888888889  26.9016501650165 13.5243124312431  26.9016501650165 13.3306930693069  C 26.9016501650165 12.9047304730473  26.6789878987899 12.6917491749175  26.2336633663366 12.6917491749175  C 26.0312431243124 12.6917491749175  25.8591859185919 12.7595159515952  25.7174917491749 12.8950495049505  L 9.26072607260726 28.636303630363  C 9.11903190319032 28.7718371837184  9.04818481848185 28.9364136413641  9.04818481848185 29.1300330033003  C 9.04818481848185 29.5559955995599  9.27084708470847 29.7689768976898  9.71617161716172 29.7689768976898  C 9.91859185918592 29.7689768976898  10.0906490649065 29.7012101210121  10.2323432343234 29.5656765676568  L 26.6891089108911 13.8244224422442  Z M 0 31.9181518151815  L 25.2620462046205 7.75445544554456  L 37.8930693069307 19.836303630363  L 12.6310231023102 44  L 0 44  L 0 31.9181518151815  Z M 44.8765676567657 7.8996699669967  C 45.6255225522552 8.65478547854786  46 9.53575357535754  46 10.5425742574257  C 46 11.5687568756876  45.6255225522552 12.4400440044004  44.8765676567657 13.1564356435644  L 39.836303630363 17.9775577557756  L 27.2052805280528 5.8957095709571  L 32.2455445544554 1.1036303630363  C 32.9742574257426 0.367876787678764  33.8851485148515 0  34.9782178217822 0  C 36.0510451045105 0  36.9720572057206 0.367876787678764  37.7412541254125 1.1036303630363  L 44.8765676567657 7.8996699669967  Z " fill-rule="nonzero" fill="#000000" stroke="none" transform="matrix(1 0 0 1 144 222 )" />
  </g>
</svg>