<?xml version="1.0" encoding="utf-8"?>
<svg version="1.1" xmlns:xlink="http://www.w3.org/1999/xlink" width="38px" height="44px" xmlns="http://www.w3.org/2000/svg">
  <g transform="matrix(1 0 0 1 -62 -221 )">
    <path d="M 21.2384669978708 19.1673819742489  C 21.7329074994086 19.6979358266912  21.9801277501774 20.3049254036378  21.9801277501774 20.9883507050889  C 22.1239649869884 22.1213979153893  21.6699787083038 23.0296341712651  20.6181689141235 23.7130594727161  C 19.5663591199432 24.3964847741672  18.5639933759167 24.4504394032291  17.611071682044 23.8749233599019  C 16.9098651525905 23.5691804618843  16.4289093920038 23.047619047619  16.1682044002839 22.3102391171061  C 15.907499408564 21.5728591865931  15.9030044949137 20.8354792560801  16.1547196593329 20.0980993255671  C 16.4064348237521 19.3607193950542  16.8739058433877 18.8391579807889  17.5571327182399 18.5334150827713  C 18.2044002838893 18.2096873083998  18.856162763189 18.1017780502759  19.5124201561391 18.2096873083998  C 20.1686775490892 18.3175965665236  20.7440264963331 18.6368281218067  21.2384669978708 19.1673819742489  Z M 23.625266146203 24.9540159411404  C 24.7220250768867 23.5871653382383  25.171516441921 22.0764357245044  24.9737402413059 20.4218270999387  C 24.7220250768867 18.4974453300634  23.7061745919092 17.0226854690374  21.9261887863733 15.9975475168608  C 20.1462029808375 14.9724095646842  18.3752070026023 14.8555078683834  16.6132008516678 15.6468424279583  C 15.4804826117814 16.1504189658696  14.5770049680625 16.946249744533  13.902767920511 18.0343347639485  C 13.2285308729595 19.122419783364  12.9183818310859 20.2869405272839  12.97232079489 21.5278969957082  C 13.0442394132955 23.1645207439199  13.7409510290987 24.558348661353  15.0624556422995 25.7093807480074  C 16.3839602555004 26.8604128346618  17.8717766737639 27.3639893725731  19.5259048970901 27.2201103617413  C 21.162053465815 27.0762313509095  22.5285072155193 26.3208665440425  23.625266146203 24.9540159411404  Z M 29.3967352732434 7.05456774984672  C 30.2237993849066 6.73983241365215  30.898036432458 6.32168403842223  31.4194464158978 5.80012262415696  C 31.0598533238704 5.31453096259963  30.5564229950319 4.91436746372368  29.9091554293825 4.59963212752912  C 29.2618878637331 4.28489679133456  28.7404778802934 4.08706315144083  28.3449254790632 4.00613120784795  C 27.949373077833 3.92519926425506  27.3110953394843 3.81279378704271  26.430092264017 3.66891477621092  C 21.1980127750177 2.82362558757408  16.1097705228294 2.84161046392806  11.1653655074521 3.72286940527284  C 10.3922403595931 3.84876353975066  9.79891175774781 3.95667279787451  9.38537970191625 4.04659717964439  C 8.97184764608469 4.13652156141426  8.47740714454696 4.33435520130799  7.90205819730305 4.64009809932557  C 7.32670925005914 4.94584099734314  6.87721788502484 5.33251583895361  6.55358410220014 5.80012262415696  C 7.09297374024131 6.30369916206826  7.77620061509345 6.71285509912119  8.60326472675657 7.02759043531576  C 9.43032883841968 7.34232577151032  10.0910811450201 7.54015941140405  10.5855216465578 7.62109135499693  C 11.0799621480956 7.70202329858982  11.8665720369056 7.80543633762518  12.9453513129879 7.931330472103  C 17.0447125621008 8.45289188636828  21.0721551928081 8.46188432454527  25.02767920511 7.95830778663396  C 26.1603974449965 7.81442877580216  26.9649869884079 7.70651951767831  27.4414478353442 7.63458001226241  C 27.9179086822806 7.56264050684651  28.5696711615803 7.36930308604128  29.3967352732434 7.05456774984672  Z M 33.1724627395316 32.7234825260576  C 33.0286255027206 33.2270590639689  32.9567068843151 33.5597792765175  32.9567068843151 33.7216431637032  C 32.8128696475041 34.1892499489066  32.6735273243435 34.8771714694461  32.5386799148332 35.7854077253219  C 32.4038325053229 36.6936439811976  32.2779749231133 37.4490087880646  32.1611071682044 38.0515021459227  C 32.0442394132955 38.6539955037809  31.7880293352259 39.28346617617  31.3924769339957 39.9399141630901  C 30.9969245327656 40.5963621500102  30.4755145493258 41.10443490701  29.8282469836764 41.4641324340895  C 28.2819966879584 42.3274064990803  26.5784244144784 42.9703658287349  24.7175301632363 43.3930104230533  C 22.8566359119943 43.8156550173718  21.0406907972557 44.0134886572655  19.2696948190206 43.9865113427345  C 17.4986988407854 43.9595340282036  15.6872486396972 43.7931739219293  13.8353442157559 43.4874310239117  C 13.0082801040927 43.3435520130799  12.2756091790868 43.1816881258941  11.6373314407381 43.0018393623544  C 10.9990537023894 42.8219905988146  10.3113319138869 42.579194768036  9.57416607523066 42.2734518700184  C 8.8370002365744 41.9677089720008  8.18074284362432 41.5765379113019  7.60539389638041 41.0999386879215  C 7.0300449491365 40.6233394645412  6.56257392950083 40.0703045166564  6.20298083747339 39.4408338442673  C 5.75348947243908 37.7142857142857  5.24106931629998 35.0884937666054  4.66572036905607 31.5634580012262  L 4.82753726046842 31.1318209687308  L 5.31298793470546 30.8890251379522  C 9.32245091081145 33.5507868383405  13.8757984386089 34.8816676885346  18.9730305180979 34.8816676885346  C 24.0702625975869 34.8816676885346  28.6325999526851 33.5507868383405  32.6600425833925 30.8890251379522  C 33.0376153300213 30.996934396076  33.2533711852378 31.2037604741467  33.3073101490419 31.5095033721643  C 33.361249112846 31.8152462701819  33.3162999763426 32.2199059881463  33.1724627395316 32.7234825260576  Z M 37.986515259049 6.33966891477621  C 37.9955050863497 6.89720008174944  37.9460610361959 7.38279174330676  37.8381831085877 7.79644389944819  C 37.370712088952 10.799918250562  36.3728412585758 16.6899652564889  34.8445706174592 25.4665849172287  C 34.7546723444523 26.0061312078479  34.5119470073338 26.5097077457592  34.1163946061036 26.9773145309626  C 33.7208422048734 27.4449213161659  33.3297847172936 27.8046188432454  32.9432221433641 28.0564071122011  C 32.5566595694346 28.3081953811568  32.0667139815472 28.5869609646434  31.4733853797019 28.8927038626609  C 26.9425124201561 31.1587982832618  21.4587177667376 31.9501328428367  15.0220014194464 31.2667075413857  C 10.5630470783061 30.7811158798283  7.02105512183582 29.5311669732271  4.39602555003549 27.5168608215819  C 4.1263307310149 27.3010423053342  3.89709013484741 27.062742693644  3.708303761533 26.8019619865113  C 3.51951738821859 26.5411812793787  3.36669032410693 26.2264459431841  3.24982256919801 25.8577559779277  C 3.13295481428909 25.4890660126712  3.05204636858292 25.1833231146536  3.00709723207949 24.9405272838749  C 2.96214809557606 24.6977314530963  2.90820913177194 24.3425301451052  2.84528034066714 23.8749233599019  C 2.78235154956234 23.4073165746985  2.73290749940856 23.092581238504  2.69694819020582 22.9307173513182  C 2.53513129879347 22.0314735336195  2.29690087532529 20.6826078070713  1.98225691980128 18.8841201716738  C 1.66761296427727 17.0856325362763  1.41589779985806 15.6333537706928  1.22711142654365 14.5272838749234  C 1.03832505322924 13.4212139791539  0.827064111663118 12.0948293480482  0.59332860184528 10.5481299816064  C 0.359593092027443 9.00143061516452  0.161816891412349 7.58062538320049  0 6.28571428571429  C 0.0539389638041164 5.81810750051093  0.211260941566123 5.38197424892704  0.471965933286018 4.9773145309626  C 0.732670925005914 4.57265481299816  1.01585048497753 4.23543838136113  1.32150461320085 3.9656652360515  C 1.62715874142418 3.69589209074188  2.03170096995505 3.42611894543225  2.53513129879347 3.15634580012262  C 3.03856162763189 2.886572654813  3.45209368346345 2.68424279583078  3.77572746628815 2.54935622317596  C 4.09936124911285 2.41446965052115  4.53087295954578 2.24810954424688  5.07026259758694 2.05027590435316  C 7.31771942275846 1.2229715920703  10.1315353678732 0.647455548743102  13.5117104329312 0.323727774371551  C 20.3259995268512 -0.341712650725525  26.403122782115 0.107909258123852  31.7430801987225 1.67259350091968  C 34.5299266619352 2.49989781320253  36.4627395315827 3.59697527079501  37.541518807665 4.96382587369712  C 37.829193281287 5.32352340077662  37.9775254317483 5.78213774780298  37.986515259049 6.33966891477621  Z " fill-rule="nonzero" fill="#000000" stroke="none" transform="matrix(1 0 0 1 62 221 )" />
  </g>
</svg>