<?xml version="1.0" encoding="utf-8"?>
<svg version="1.1" xmlns:xlink="http://www.w3.org/1999/xlink" width="20px" height="20px" viewBox="372 361.5  20 20" xmlns="http://www.w3.org/2000/svg">
  <path d="M 382 361.5  C 387.6 361.5  392 365.9  392 371.5  C 392 377.1  387.6 381.5  382 381.5  C 376.4 381.5  372 377.1  372 371.5  C 372 365.9  376.4 361.5  382 361.5  Z " fill-rule="nonzero" fill="#ffffff" stroke="none" />
  <path d="M 382 362  C 387.32 362  391.5 366.18  391.5 371.5  C 391.5 376.82  387.32 381  382 381  C 376.68 381  372.5 376.82  372.5 371.5  C 372.5 366.18  376.68 362  382 362  Z " stroke-width="1" stroke="#797979" fill="none" />
  <path d="M 382 376.5  C 379.2 376.5  377 374.3  377 371.5  C 377 368.7  379.2 366.5  382 366.5  C 384.8 366.5  387 368.7  387 371.5  C 387 374.3  384.8 376.5  382 376.5  " fill-rule="nonzero" fill="#797979" stroke="none" />
</svg>