<?xml version="1.0" encoding="utf-8"?>
<svg version="1.1" xmlns:xlink="http://www.w3.org/1999/xlink" width="12px" height="12px" viewBox="205 43  12 12" xmlns="http://www.w3.org/2000/svg">
  <path d="M 211 43  C 214.36 43  217 45.64  217 49  C 217 52.36  214.36 55  211 55  C 207.64 55  205 52.36  205 49  C 205 45.64  207.64 43  211 43  Z " fill-rule="nonzero" fill="#ffffff" stroke="none" />
  <path d="M 211 43.5  C 214.08 43.5  216.5 45.92  216.5 49  C 216.5 52.08  214.08 54.5  211 54.5  C 207.92 54.5  205.5 52.08  205.5 49  C 205.5 45.92  207.92 43.5  211 43.5  Z " stroke-width="1" stroke="#797979" fill="none" />
  <path d="M 211 52  C 209.32 52  208 50.68  208 49  C 208 47.32  209.32 46  211 46  C 212.68 46  214 47.32  214 49  C 214 50.68  212.68 52  211 52  " fill-rule="nonzero" fill="#797979" stroke="none" />
</svg>